<svg xmlns="http://www.w3.org/2000/svg" viewBox="0 0 900 600"><defs><linearGradient id="bg" x1="0" y1="0" x2="1" y2="1"><stop offset="0" stop-color="#071018"/><stop offset="1" stop-color="#04090f"/></linearGradient><linearGradient id="a" x1="0" y1="0" x2="1" y2="1"><stop offset="0" stop-color="#65737b" stop-opacity=".38"/><stop offset="1" stop-color="#182128" stop-opacity=".04"/></linearGradient><linearGradient id="b" x1="0" y1="0" x2="1" y2="1"><stop offset="0" stop-color="#75858d" stop-opacity=".29"/><stop offset="1" stop-color="#162027" stop-opacity=".04"/></linearGradient></defs><rect width="900" height="600" fill="url(#bg)"/><g fill="none" stroke="#7c8a92" stroke-opacity=".23" stroke-width="1.1" stroke-linejoin="round"><path d="M30 115L205 65L410 200L590 105L760 245L900 165"/><path d="M0 310L145 235L410 200L520 360L715 255L900 355"/><path d="M0 500L180 415L360 515L520 360L735 465L900 555"/><path d="M205 65L145 235L180 415"/><path d="M410 200L520 360L360 515"/><path d="M590 105L715 255L735 465"/><path d="M145 235L410 200L520 360L715 255"/><path d="M180 415L360 515L520 360L735 465"/></g><g><polygon points="205,65 410,200 145,235" fill="url(#a)"/><polygon points="410,200 590,105 520,360" fill="url(#b)"/><polygon points="145,235 180,415 0,500" fill="url(#b)"/><polygon points="360,515 520,360 735,465" fill="url(#a)"/><polygon points="520,360 715,255 735,465" fill="url(#a)"/></g><g fill="none" stroke="#6fb1b8" stroke-opacity=".28" stroke-width="1.25"><path d="M360 515L520 360"/><path d="M520 360L715 255"/></g><g fill="#c4ced3"><circle cx="690" cy="150" r="1.4" opacity=".4"/><circle cx="712" cy="150" r="1.3" opacity=".33"/><circle cx="734" cy="150" r="1.1" opacity=".24"/><circle cx="756" cy="150" r=".9" opacity=".15"/><circle cx="690" cy="172" r="1.2" opacity=".27"/><circle cx="712" cy="172" r="1" opacity=".2"/><circle cx="108" cy="425" r="1.3" opacity=".29"/><circle cx="130" cy="425" r="1.2" opacity=".24"/><circle cx="152" cy="425" r="1" opacity=".18"/><circle cx="108" cy="447" r="1" opacity=".18"/><circle cx="130" cy="447" r=".9" opacity=".14"/></g></svg>